 <svg class="block h-8 w-auto" viewBox="0 0 180 32" fill="none" xmlns="http://www.w3.org/2000/svg"><path d="M69.5918 20.4478H60.2153C60.6531 22.0597 61.9367 23.0182 63.741 23.0182C65.2435 23.0182 66.285 22.3881 66.9948 21.5158L69.3198 23.675C68.1987 25.1244 66.4773 26.2189 63.4956 26.2189C59.3928 26.2189 56.4973 23.4561 56.4973 19.2736C56.4973 15.2007 59.3132 12.4113 63.2767 12.4113C67.0478 12.4113 69.6747 15.2537 69.6747 19.1642C69.6747 19.602 69.6216 20.2289 69.5918 20.4478ZM60.2419 17.8806H66.1191C65.7642 16.4577 64.8057 15.529 63.2468 15.529C61.8007 15.529 60.6531 16.3483 60.2419 17.8806Z" fill="#82BE21"></path><path d="M71.552 20.6667V12.6003H75.1076V19.7346C75.1076 22.1691 75.8472 22.9884 77.5122 22.9884C79.0711 22.9884 80.4641 21.675 80.4641 19.1078V12.6003H84.0727V25.9701H80.4641V24.3847L80.4077 24.3582C79.3961 25.5887 77.9732 26.2189 76.4707 26.2189C73.5719 26.2189 71.552 24.7396 71.552 20.6667Z" fill="#82BE21"></path><path d="M86.5968 12.6037H90.1789V14.544H90.232C91.2436 13.1775 92.693 12.4113 94.2519 12.4113H94.5239V16.3217C94.1424 16.2952 93.7842 16.2952 93.5653 16.2952C91.3497 16.2952 90.1756 17.7712 90.1756 19.7944V25.9735H86.5935V12.6037H86.5968Z" fill="#82BE21"></path><path d="M95.9102 19.3002C95.9102 15.3068 98.7527 12.4113 103.018 12.4113C107.174 12.4113 110.099 15.2007 110.099 19.3002C110.099 23.3731 107.174 26.2156 103.018 26.2156C98.7527 26.2189 95.9102 23.2935 95.9102 19.3002ZM106.461 19.3002C106.461 17.1111 104.985 15.6086 103.015 15.6086C100.938 15.6086 99.5421 17.194 99.5421 19.3002C99.5421 21.3765 100.965 22.9917 103.015 22.9917C104.932 22.9917 106.461 21.4892 106.461 19.3002Z" fill="#82BE21"></path><path d="M111.804 19.3267C111.804 15.1974 114.676 12.408 118.802 12.408C120.879 12.408 123.068 13.1741 124.461 14.8126L122.109 17.0282C121.399 16.1526 120.305 15.6053 119.048 15.6053C116.889 15.6053 115.439 17.1078 115.439 19.2969C115.439 21.5125 116.915 22.9884 119.048 22.9884C120.414 22.9884 121.482 22.4146 122.192 21.539L124.517 23.7811C123.37 25.204 121.539 26.2156 118.693 26.2156C114.703 26.2189 111.804 23.4295 111.804 19.3267Z" fill="#82BE21"></path><path d="M125.515 19.3267C125.515 15.2803 128.222 12.408 131.804 12.408C133.363 12.408 134.786 13.0083 135.741 14.1592L135.794 14.1327V12.6004H139.376V25.9702H135.96V24.3848L135.907 24.3582C134.978 25.5622 133.638 26.2189 131.887 26.2189C128.222 26.2189 125.515 23.4561 125.515 19.3267ZM135.96 19.3566C135.96 17.1974 134.484 15.612 132.57 15.612C130.63 15.612 129.154 17.0614 129.154 19.3566C129.154 21.4892 130.547 22.9917 132.57 22.9917C134.401 22.9917 135.96 21.5423 135.96 19.3566Z" fill="#82BE21"></path><path d="M141.887 12.6036H145.469V14.3548H145.496C146.564 13.0713 148.01 12.4146 149.489 12.4146C151.241 12.4146 152.634 13.0713 153.426 14.5207H153.479C154.574 13.1276 156.242 12.4146 158.156 12.4146C161.028 12.4146 162.859 14.1359 162.859 18.2388V25.9767H159.277V19.0879C159.277 16.9552 158.62 15.6152 156.952 15.6152C155.45 15.6152 154.219 16.8988 154.219 19.3068V25.9767H150.637V19.0879C150.637 16.9552 149.927 15.6152 148.285 15.6152C146.673 15.6152 145.469 16.8988 145.469 19.3068V25.9767H141.887V12.6036Z" fill="#82BE21"></path><path d="M165.157 12.6037H168.739V14.136H168.792C169.751 13.0149 171.171 12.4146 172.812 12.4146C176.421 12.4146 179.127 15.2869 179.127 19.3333C179.127 23.4627 176.421 26.2222 172.703 26.2222C171.035 26.2222 169.721 25.5921 168.792 24.471L168.739 24.4975V31.3864H165.157V12.6037ZM175.492 19.3566C175.492 17.0614 173.96 15.612 172.046 15.612C169.996 15.612 168.573 17.1974 168.573 19.3566C168.573 21.5456 170.106 22.9917 172.073 22.9917C174.069 22.9917 175.492 21.4892 175.492 19.3566Z" fill="#82BE21"></path><path d="M13.7874 6.63017C11.9433 6.63017 10.4442 8.12934 10.4442 9.97345C10.4442 11.8176 11.9433 13.3167 13.7874 13.3167C15.6316 13.3167 17.1307 11.8176 17.1307 9.97345C17.1307 8.12934 15.6282 6.63017 13.7874 6.63017Z" fill="#F8AB12"></path><path d="M36.2584 6.63017C34.4143 6.63017 32.9151 8.12934 32.9151 9.97345C32.9151 10.0431 32.9184 10.1128 32.9251 10.1824L32.9483 10.5075H39.5685L39.5917 10.1791C39.5951 10.1094 39.6017 10.0431 39.6017 9.97345C39.6017 8.12934 38.1025 6.63017 36.2584 6.63017Z" fill="#F8AB12"></path><path d="M33.4392 0C30.3513 0 27.4691 0.878936 25.0246 2.39137C22.5802 0.875619 19.6979 0 16.61 0C7.7742 0 0.610016 7.16418 0.610016 16C0.610016 24.8358 7.7742 32 16.61 32C19.6979 32 22.5802 31.1244 25.0246 29.6086C27.4691 31.1244 30.3513 32 33.4392 32C42.275 32 49.4392 24.8358 49.4392 16C49.4392 7.16418 42.275 0 33.4392 0ZM28.8256 13.8143C27.6349 14.534 26.348 14.9254 25.0246 14.9254C23.7012 14.9254 22.411 14.534 21.2236 13.8143C21.7079 11.0978 23.0777 8.68325 25.0246 6.88225C26.9715 8.68325 28.338 11.0978 28.8256 13.8143ZM25.0213 25.1144C22.9782 23.2239 21.5686 20.66 21.154 17.7778C22.3745 18.2521 23.6747 18.5108 25.0213 18.5108C26.3712 18.5108 27.6681 18.2521 28.8886 17.7778C28.4774 20.66 27.0677 23.2239 25.0213 25.1144ZM4.19211 15.9967C4.19211 9.15091 9.76093 3.58209 16.6067 3.58209C18.5371 3.58209 20.3679 4.02654 21.9997 4.81592C19.1805 7.70149 17.4392 11.6451 17.4392 15.9967C17.4392 20.3483 19.1805 24.2919 21.9997 27.1774C20.3679 27.9668 18.5371 28.4113 16.6067 28.4113C9.76093 28.4113 4.19211 22.8425 4.19211 15.9967ZM33.4392 28.4113C31.5089 28.4113 29.678 27.9668 28.0462 27.1774C30.8654 24.2919 32.6067 20.3483 32.6067 15.9967C32.6067 11.6451 30.8654 7.70149 28.0462 4.81592C29.678 4.02654 31.5089 3.58209 33.4392 3.58209C40.285 3.58209 45.8538 9.15091 45.8538 15.9967C45.8538 22.8425 40.2817 28.4113 33.4392 28.4113Z" fill="#F8AB12"></path></svg>